# xmcd
#
# Track frame offsets: 
#        150
#        24962
#        36025
#        55367
#        89202
#        106232
#        116700
#        148865
#        184072
#        203397
#        215462
#        232677
#        248905
#        260215
#        274690
#        310515
#
# Disc length: 4712 seconds
#
# Revision: 5
# Processed by: cddbd v1.5.2PL0 Copyright (c) Steve Scherf et al.
# Submitted via: ExactAudioCopyFreeDBPlugin 1.0
#
DISCID=e0126610
DTITLE=Ten Years After - Portfolio - A History
DYEAR=1988
DGENRE=Rock
TTITLE0=I Woke Up This Morning
TTITLE1=Year 3000 Blues
TTITLE2=Me And My Baby
TTITLE3=Love Like a Man
TTITLE4=I'd Love To Change The World
TTITLE5=Baby Won't You Let Me Rock 'N' Roll You
TTITLE6=Good Morning Little Schoolgirl
TTITLE7=Woodchoppers Ball
TTITLE8=Positive Vibrations
TTITLE9=Going Back to Birmingham
TTITLE10=Rock and Roll Music to the World
TTITLE11=I Wanted to Boogie
TTITLE12=You're Driving Me Crazy
TTITLE13=Choo Choo Mama
TTITLE14=Hobbit
TTITLE15=I'm Going Home
EXTD=YEAR: 1988
EXTT0=
EXTT1=
EXTT2=
EXTT3=
EXTT4=
EXTT5=
EXTT6=
EXTT7=
EXTT8=
EXTT9=
EXTT10=
EXTT11=
EXTT12=
EXTT13=
EXTT14=
EXTT15=
PLAYORDER=
